Coordinates
version=1
nRows=9
nColumns=36
inDegrees=yes

Units are S.I. units (second, meters, Newtons, ...)
If the header above contains a line with 'inDegrees', this indicates whether rotational values are in degrees (yes) or radians (no).

endheader
time	pelvis_tilt	pelvis_list	pelvis_rotation	pelvis_tx	pelvis_ty	pelvis_tz	hip_flexion_r	hip_adduction_r	hip_rotation_r	knee_angle_r	knee_angle_r_beta	ankle_angle_r	subtalar_angle_r	mtp_angle_r	hip_flexion_l	hip_adduction_l	hip_rotation_l	knee_angle_l	knee_angle_l_beta	ankle_angle_l	subtalar_angle_l	mtp_angle_l	lumbar_extension	lumbar_bending	lumbar_rotation	arm_flex_r	arm_add_r	arm_rot_r	elbow_flex_r	pro_sup_r	arm_flex_l	arm_add_l	arm_rot_l	elbow_flex_l	pro_sup_l
      4.45000000	     -8.70113786	      0.02489453	     -0.99603737	      0.87118554	      0.92095179	      0.03437070	     23.57030131	     -0.82360907	     -2.54358942	     38.60765080	      0.67383062	     23.11754928	    -14.82087615	     -7.49999987	     26.55689288	     -2.39828814	      3.81274051	     39.22079777	      0.68453206	     19.41480975	     -5.68823387	     -7.49999987	     -8.00226559	     -2.71273645	      0.97559443	      6.43789153	    -10.53145563	     13.55460015	     29.65356257	     66.52721532	     -3.76648003	    -12.87695289	     11.42630339	     28.32375065	     62.88550634
      4.46666670	     -8.15039734	      0.02331756	     -1.33506153	      0.87181769	      0.93436974	      0.02746541	     20.45436487	     -0.68762917	     -2.55397441	     33.07531366	      0.57727312	     20.65579736	    -13.71244312	     -7.49999987	     22.79215519	     -2.55917449	      3.14109746	     33.16476076	      0.57883427	     16.47103361	     -4.95850079	     -7.49999987	     -7.84520649	     -2.65522072	      0.91405905	      6.62055419	    -10.92210736	     13.85157803	     30.72067383	     66.86354954	     -3.14441417	    -13.65777670	     11.38388979	     30.45489297	     62.78560115
      4.48333330	     -7.67413676	     -0.09845525	     -1.64238765	      0.86667084	      0.94519318	      0.02961854	     17.39733839	     -0.52258857	     -3.12607233	     27.83021414	      0.48572887	     18.23402391	    -12.01100433	     -7.49999987	     19.42343074	     -2.75380716	      2.87663362	     27.62458319	      0.48213993	     14.08048098	     -4.30626785	     -7.49999987	     -7.68163234	     -2.46993499	      0.72577454	      6.63823465	    -11.33863684	     14.22114136	     32.24933773	     67.32710528	     -2.78746143	    -14.59605504	     11.13668034	     33.38334460	     62.87411347
      4.50000000	     -6.77308373	     -0.08700010	     -2.02356201	      0.87971598	      0.94892801	      0.03105289	     13.74789675	     -0.41647406	     -3.60862026	     22.92748622	      0.40016012	     16.56313584	    -10.04121607	     -7.49999987	     15.63509967	     -2.79016614	      2.70979752	     22.65370706	      0.39538178	     12.11529707	     -3.72073325	     -7.49999987	     -7.38381499	     -2.47171649	      0.75113819	      5.98413890	    -11.71026878	     14.31065467	     33.48650603	     67.78194295	     -3.25824761	    -15.46416038	     10.18288901	     35.91399769	     62.97203430
      4.51666670	     -6.70521840	     -0.05771173	     -2.37563913	      0.86849488	      0.94796257	      0.03066677	     11.92154124	     -0.28852217	     -3.89679332	     19.43074171	      0.33913042	     15.55873574	     -8.16864847	     -7.49999987	     14.02002500	     -2.84847838	      2.49734376	     19.58616413	      0.34184305	     11.68621301	     -2.88197462	     -7.49999987	     -6.84685255	     -2.38490463	      0.04656264	      5.88539507	    -12.04888618	     14.04796076	     36.15361871	     69.44306638	     -4.97698189	    -16.34921522	      6.76038271	     40.45504791	     63.90911520
      4.53333330	     -6.42085745	      0.02687386	     -2.80617235	      0.86913602	      0.95247304	      0.03112344	      9.92891390	     -0.27748885	     -4.18799538	     16.01356986	      0.27948952	     14.99861562	     -6.40864585	     -7.49999987	     12.10500146	     -2.80579730	      2.36217499	     16.65831447	      0.29074244	     10.93873442	     -2.32658361	     -7.49999987	     -6.23868356	     -2.32026485	      0.17708391	      5.41859208	    -12.77386558	     14.36112805	     38.60964134	     69.95055381	     -5.72835814	    -17.84134547	      6.02463569	     44.56966166	     64.43872818
      4.55000000	     -6.13885955	      0.03950905	     -3.16070955	      0.86403855	      0.96034994	      0.02861037	      8.08801681	     -0.21642986	     -4.53135079	     13.02300964	      0.22729440	     14.47081789	     -4.69560007	     -7.49999987	     10.54084324	     -2.84532781	      2.22100065	     14.23040838	      0.24836748	     10.16969646	     -1.76525055	     -7.49999987	     -5.88983557	     -2.10617350	     -0.00780741	      5.36459573	    -13.49448160	     14.27348274	     40.50678879	     70.51959725	     -6.35705473	    -18.86890151	      4.42608639	     48.30599427	     65.03040304
      4.56666670	     -6.62140350	      0.01926169	     -3.56293726	      0.86880335	      0.95905748	      0.03192838	      7.57753190	     -0.03376035	     -4.39098572	     10.97916581	      0.19162259	     14.01023471	     -4.03863218	     -7.49999987	      9.69823601	     -2.97560810	      2.17389193	     11.88285238	      0.20739490	      9.88127102	     -1.38635488	     -7.49999987	     -4.06230678	     -1.67778902	      0.10649036	      5.40972517	    -13.91578534	     14.24878635	     41.03685323	     70.60807080	     -6.35817140	    -19.78669862	      3.90212245	     49.22359258	     65.10176708
      4.58333330	     -5.97412145	      0.05410745	     -4.01605032	      0.86317146	      0.96334331	      0.02939895	      6.00475825	     -0.06629544	     -4.52112390	      9.21147970	      0.16077065	     13.45930637	     -2.64537437	     -7.49999987	      7.66201518	     -3.01920701	      1.24778512	      9.36119203	      0.16338362	      9.34962623	     -0.00451611	     -7.49999987	     -4.51513372	     -1.57851608	     -2.13686485	      7.09674011	    -14.54014420	     16.62039738	     43.15142283	     73.44676174	    -10.32181563	    -20.01995885	     -3.15368591	     56.90061166	     68.76808504
